{"title":"Poetic Justice 1993 720p WEBRiP x264 SSloco","uid":11984881,"size":890421339,"categoryP":"video","categoryS":"hd___movies","magnet":"?xt=urn:btih:bf0946b1ec8bfd3c5334a04f257421bdc6eabd55&amp;dn=Poetic+Justice+1993+720p+WEBRiP+x264+SSloco&amp;tr=udp%3A%2F%2Ftracker.openbittorrent.com%3A80&amp;tr=udp%3A%2F%2Fopen.demonii.com%3A1337&amp;tr=udp%3A%2F%2Ftracker.coppersurfer.tk%3A6969&amp;tr=udp%3A%2F%2Fexodus.desync.com%3A6969","seeders":0,"leechers":0,"uploader":"myhoes14","files":1,"time":1433326204,"description":"Source:Poetic Justice 1993 720p WEBRiP XViD AC3-LEGi0N\n\n\nMedia Info\n\nFormat : MPEG-4\nFormat profile : Base Media\nCodec ID : isom\nFile size : 849 MiB\nDuration : 1h 49mn\nOverall bit rate mode : Variable\nOverall bit rate : 1 088 Kbps\nEncoded date : UTC 2015-04-19 19:47:58\nTagged date : UTC 2015-04-19 19:47:58\n\nVideo\nID : 1\nFormat : AVC\nFormat/Info : Advanced Video Codec\nFormat profile : &lt;a class=&quot;__cf_email__&quot; href=&quot;/cdn-cgi/l/email-protection&quot; data-cfemail=&quot;672f0e000f272b534956&quot;&gt;[email&amp;#160;protected]&lt;/a&gt;&lt;script data-cfhash='f9e31' type=&quot;text/javascript&quot;&gt;\n/* &lt;![CDATA[ */!function(){try{var t=&quot;currentScript&quot;in document?document.currentScript:function(){for(var t=document.getElementsByTagName(&quot;script&quot;),e=t.length;e--;)if(t[e].getAttribute(&quot;data-cfhash&quot;))return t[e]}();if(t&amp;&amp;t.previousSibling){var e,r,n,i,c=t.previousSibling,a=c.getAttribute(&quot;data-cfemail&quot;);if(a){for(e=&quot;&quot;,r=parseInt(a.substr(0,2),16),n=2;a.length-n;n+=2)i=parseInt(a.substr(n,2),16)^r,e+=String.fromCharCode(i);e=document.createTextNode(e),c.parentNode.replaceChild(e,c)}t.parentNode.removeChild(t);}}catch(u){}}()/* ]]&gt; */&lt;/script&gt;\nFormat settings, CABAC : Yes\nFormat settings, ReFrames : 4 frames\nCodec ID : avc1\nCodec ID/Info : Advanced Video Coding\nDuration : 1h 49mn\nBit rate : 1 000 Kbps\nMaximum bit rate : 6 359 Kbps\nWidth : 1 280 pixels\nHeight : 720 pixels\nDisplay aspect ratio : 16:9\nFrame rate mode : Constant\nFrame rate : 23.976 fps\nColor space : YUV\nChroma subsampling : 4:2:0\nBit depth : 8 bits\nScan type : Progressive\nBits/(Pixel*Frame) : 0.045\nStream size : 780 MiB (92%)\nWriting library : x264 core 146 r2538 121396c\nEncoding settings : cabac=1 / ref=2 / deblock=1:-1:-1 / analyse=0x3:0x113 / me=hex / subme=6 / psy=1 / psy_rd=1.00:0.15 / mixed_ref=1 / me_range=16 / chroma_me=1 / trellis=1 / 8x8dct=1 / cqm=0 / deadzone=21,11 / fast_pskip=1 / chroma_qp_offset=-3 / threads=6 / lookahead_threads=1 / sliced_threads=0 / nr=0 / decimate=1 / interlaced=0 / bluray_compat=0 / constrained_intra=0 / bframes=3 / b_pyramid=2 / b_adapt=1 / b_bias=0 / direct=1 / weightb=1 / open_gop=0 / weightp=1 / keyint=240 / keyint_min=23 / scenecut=40 / intra_refresh=0 / rc_lookahead=30 / rc=2pass / mbtree=1 / bitrate=1000 / ratetol=1.0 / qcomp=0.60 / qpmin=0 / qpmax=69 / qpstep=4 / cplxblur=20.0 / qblur=0.5 / vbv_maxrate=62500 / vbv_bufsize=78125 / nal_hrd=none / filler=0 / ip_ratio=1.40 / aq=1:1.00\nEncoded date : UTC 2015-04-19 19:47:58\nTagged date : UTC 2015-04-19 19:49:04\nColor primaries : BT.709\nTransfer characteristics : BT.709\nMatrix coefficients : BT.709\nColor range : Limited\n\nAudio\nID : 2\nFormat : AAC\nFormat/Info : Advanced Audio Codec\nFormat profile : LC\nCodec ID : 40\nDuration : 1h 49mn\nBit rate mode : Variable\nBit rate : 84.4 Kbps\nMaximum bit rate : 113 Kbps\nChannel(s) : 2 channels\nChannel positions : Front: L R\nSampling rate : 48.0 KHz\nCompression mode : Lossy\nStream size : 65.9 MiB (8%)\nLanguage : English\nEncoded date : UTC 2015-04-19 19:40:42\nTagged date : UTC 2015-04-19 19:49:04","torrent":{"xt":"urn:btih:bf0946b1ec8bfd3c5334a04f257421bdc6eabd55","amp;dn":"Poetic+Justice+1993+720p+WEBRiP+x264+SSloco","amp;tr":["udp%3A%2F%2Ftracker.openbittorrent.com%3A80","udp%3A%2F%2Fopen.demonii.com%3A1337","udp%3A%2F%2Ftracker.coppersurfer.tk%3A6969","udp%3A%2F%2Fexodus.desync.com%3A6969"],"infoHash":"bf0946b1ec8bfd3c5334a04f257421bdc6eabd55","infoHashBuffer":{"type":"Buffer","data":[191,9,70,177,236,139,253,60,83,52,160,79,37,116,33,189,198,234,189,85]},"announce":[],"urlList":[]}}